<svg width="120" height="118" viewBox="0 0 120 118" fill="none" xmlns="http://www.w3.org/2000/svg">
<path d="M120 46.8052C120 21.0333 99.0396 0.0634766 73.2802 0.0634766C71.4938 0.0634766 69.7106 0.166715 67.9337 0.37319C66.1536 0.576538 64.3954 0.883123 62.6529 1.28982C60.9104 1.69964 59.1991 2.20645 57.516 2.81023C55.8329 3.41402 54.1874 4.11478 52.5856 4.9094C50.9808 5.70089 49.4291 6.58624 47.9274 7.55918C46.4258 8.52899 44.9836 9.58639 43.6039 10.7251C42.2243 11.8608 40.9135 13.0746 39.6715 14.3666C38.4295 15.6555 37.2689 17.0101 36.1833 18.4336C30.9964 21.5213 26.5697 25.46 22.9032 30.2527C21.1669 31.2851 19.5026 32.4207 17.9133 33.6659C16.3241 34.911 14.8225 36.2562 13.4084 37.6953C11.9944 39.1343 10.6773 40.661 9.46035 42.2721C8.24339 43.8833 7.1328 45.5632 6.13483 47.3183C5.13374 49.0733 4.25152 50.8847 3.48819 52.7524C2.72173 54.6232 2.0804 56.5315 1.56421 58.4836C1.04489 60.4358 0.656969 62.4129 0.394181 64.4151C0.134522 66.4173 0.00312902 68.4289 0 70.4498C0 96.2218 20.9604 117.188 46.7198 117.188C48.5093 117.188 50.2894 117.085 52.0695 116.882C53.8464 116.675 55.6046 116.369 57.3471 115.962C59.0896 115.555 60.8009 115.049 62.484 114.442C64.1671 113.838 65.8126 113.14 67.4144 112.346C69.0192 111.551 70.5709 110.669 72.0726 109.696C73.5742 108.723 75.0164 107.669 76.3961 106.53C77.7757 105.391 79.0865 104.177 80.3285 102.888C81.5705 101.6 82.7311 100.242 83.8167 98.8184C89.0005 95.7306 93.4272 91.7919 97.0968 86.9992C98.8331 85.9699 100.497 84.8312 102.087 83.5861C103.676 82.341 105.178 80.9989 106.592 79.5567C108.006 78.1176 109.323 76.5909 110.54 74.9829C111.757 73.3718 112.867 71.6887 113.865 69.9336C114.866 68.1786 115.748 66.3672 116.512 64.4996C117.278 62.6319 117.92 60.7204 118.436 58.7683C118.955 56.8162 119.343 54.839 119.606 52.8368C119.865 50.8346 119.997 48.8231 120 46.8052ZM34.4126 20.9019C33.252 22.6413 32.2134 24.4495 31.2936 26.3297C29.329 27.0211 27.4175 27.8376 25.5592 28.7855C28.1683 25.7728 31.1215 23.145 34.4126 20.9019ZM73.2676 92.4051C48.1339 92.4051 27.6834 71.9452 27.6834 46.799C27.6834 43.4171 28.0557 40.076 28.8034 36.7755C29.5479 33.475 30.6491 30.2997 32.107 27.2463C36.8465 25.6383 41.7175 24.8374 46.7198 24.8437C71.8505 24.8437 92.3041 45.3005 92.3041 70.4498C92.3072 73.8317 91.9349 77.1759 91.1904 80.4764C90.4458 83.7769 89.3477 86.9554 87.8899 90.0087C83.1535 91.6167 78.2825 92.4145 73.2802 92.4114L73.2676 92.4051ZM87.1641 91.4259C85.9722 93.719 84.5956 95.8933 83.0346 97.9518C79.5433 100.01 75.8423 101.571 71.9287 102.638C68.0181 103.702 64.0357 104.234 59.9844 104.227C34.8475 104.227 14.4001 83.7707 14.4001 58.6213C14.397 56.1561 14.5941 53.7034 14.9914 51.2695C15.3887 48.8356 15.98 46.4486 16.7683 44.1085C17.5536 41.7716 18.5234 39.5129 19.6778 37.3324C20.8353 35.1519 22.1586 33.0808 23.6509 31.1162C25.8689 29.8085 28.184 28.6979 30.5928 27.7844C27.8899 33.8348 26.5415 40.1698 26.5447 46.7958C26.5447 72.5678 47.5051 93.5376 73.2645 93.5376C78.0103 93.5438 82.6498 92.84 87.1797 91.429L87.1641 91.4259ZM93.4209 70.4436C93.4209 44.6716 72.4605 23.7018 46.7011 23.7018C41.9615 23.6987 37.3315 24.4026 32.8046 25.8135C33.9997 23.5235 35.3762 21.3461 36.9341 19.2876C40.4255 17.2291 44.1295 15.668 48.04 14.6044C51.9506 13.5376 55.9331 13.0089 59.9844 13.0151C85.1181 13.0151 105.569 33.4719 105.569 58.6181C105.572 61.0833 105.375 63.536 104.977 65.9699C104.58 68.407 103.989 70.794 103.204 73.1309C102.415 75.471 101.445 77.7297 100.291 79.9102C99.1366 82.0907 97.8101 84.1617 96.3178 86.1264C94.0998 87.434 91.7848 88.5415 89.3759 89.455C92.082 83.4109 93.4366 77.0758 93.4366 70.4498L93.4209 70.4436ZM46.7198 116.053C21.583 116.053 1.13562 95.593 1.13562 70.4498C1.13562 68.5947 1.24824 66.7489 1.47349 64.9063C1.69873 63.0668 2.0366 61.2491 2.48397 59.4503C2.93133 57.6483 3.48819 55.8839 4.14829 54.1539C4.81151 52.4207 5.57798 50.7377 6.44768 49.0984C7.31425 47.4622 8.2778 45.8823 9.33834 44.3619C10.3989 42.8415 11.5501 41.3931 12.7859 40.0134C14.0247 38.6338 15.3418 37.3324 16.7371 36.1154C18.1323 34.8953 19.5996 33.766 21.1325 32.7242C18.5672 36.5565 16.6182 40.6766 15.2792 45.0909C13.9434 49.5019 13.277 54.0131 13.2833 58.6244C13.2833 84.3963 34.2406 105.366 60 105.366C63.679 105.369 67.3049 104.944 70.8838 104.083C74.4596 103.226 77.8852 101.962 81.1638 100.289C80.097 101.521 78.9707 102.694 77.7788 103.808C76.59 104.919 75.3418 105.964 74.0404 106.943C72.7358 107.922 71.3843 108.826 69.9859 109.658C68.5844 110.494 67.1453 111.248 65.6624 111.926C64.1796 112.605 62.6685 113.2 61.12 113.716C59.5745 114.232 58.0072 114.664 56.4148 115.011C54.8225 115.358 53.2145 115.618 51.5939 115.793C49.9734 115.968 48.3498 116.053 46.7198 116.053ZM85.5717 96.3469C86.7355 94.6106 87.7741 92.7993 88.6908 90.9191C90.6648 90.2309 92.5794 89.4143 94.4408 88.4664C91.8317 91.4791 88.8785 94.1038 85.5874 96.3469H85.5717ZM98.855 84.5277C101.417 80.6954 103.369 76.5722 104.705 72.1611C106.041 67.7469 106.707 63.2357 106.704 58.6244C106.704 32.8525 85.7469 11.8889 59.9844 11.8889C56.3085 11.8827 52.6795 12.3081 49.1037 13.1684C45.5248 14.0256 42.0992 15.2895 38.8237 16.9632C39.8874 15.7306 41.0167 14.5575 42.2087 13.4437C43.4006 12.33 44.6488 11.2851 45.9503 10.3059C47.2548 9.32673 48.6094 8.42262 50.0078 7.58733C51.4094 6.75517 52.8516 6.00122 54.3344 5.32235C55.8173 4.64349 57.3315 4.04596 58.8769 3.5329C60.4223 3.01671 61.9928 2.58498 63.5852 2.23773C65.1775 1.8936 66.7855 1.63082 68.4061 1.45875C70.0266 1.28356 71.6502 1.19909 73.2802 1.19909C98.4108 1.19909 118.864 21.6558 118.864 46.8052C118.864 48.6572 118.752 50.5061 118.527 52.3457C118.301 54.1852 117.963 56.0059 117.516 57.8048C117.069 59.6036 116.512 61.368 115.852 63.1012C115.188 64.8312 114.422 66.5143 113.555 68.1536C112.686 69.7897 111.722 71.3696 110.662 72.89C109.601 74.4104 108.45 75.8589 107.214 77.2416C105.975 78.6213 104.658 79.9196 103.263 81.1397C101.868 82.3566 100.4 83.486 98.8675 84.5277H98.855Z" fill="#191919"/>
</svg>
