<svg width="70" height="60" viewBox="0 0 70 60" fill="none" xmlns="http://www.w3.org/2000/svg">
<path d="M34.8056 0.895302C26.3396 0.895302 19.4519 7.78304 19.4519 16.2491C19.4519 24.7151 26.3396 31.6013 34.8056 31.6013C43.2717 31.6013 50.1579 24.7151 50.1579 16.2491C50.1579 7.78304 43.2717 0.895302 34.8056 0.895302ZM34.8056 32.4981C25.8467 32.4981 18.5566 25.208 18.5566 16.2491C18.5566 7.2901 25.8467 0 34.8056 0C43.7646 0 51.0547 7.2901 51.0547 16.2491C51.0547 25.208 43.7646 32.4981 34.8056 32.4981Z" fill="#191919"/>
<path d="M34.8057 2.87152C27.4295 2.87152 21.4282 8.87286 21.4282 16.2491C21.4282 23.6253 27.4295 29.6266 34.8057 29.6266C42.1819 29.6266 48.1833 23.6253 48.1833 16.2491C48.1833 8.87286 42.1819 2.87152 34.8057 2.87152ZM34.8057 30.5219C26.9351 30.5219 20.5314 24.1197 20.5314 16.2491C20.5314 8.37844 26.9351 1.97473 34.8057 1.97473C42.6764 1.97473 49.0786 8.37844 49.0786 16.2491C49.0786 24.1197 42.6764 30.5219 34.8057 30.5219Z" fill="#191919"/>
<path d="M34.8056 4.84623C28.5177 4.84623 23.4027 9.96118 23.4027 16.2491C23.4027 22.537 28.5177 27.6519 34.8056 27.6519C41.0935 27.6519 46.2084 22.537 46.2084 16.2491C46.2084 9.96118 41.0935 4.84623 34.8056 4.84623ZM34.8056 28.5472C28.0248 28.5472 22.5074 23.0299 22.5074 16.2491C22.5074 9.46824 28.0248 3.95093 34.8056 3.95093C41.5864 3.95093 47.1037 9.46824 47.1037 16.2491C47.1037 23.0299 41.5864 28.5472 34.8056 28.5472Z" fill="#191919"/>
<path d="M34.8057 6.82096C29.6076 6.82096 25.3775 11.051 25.3775 16.2491C25.3775 21.4472 29.6076 25.6772 34.8057 25.6772C40.0038 25.6772 44.2338 21.4472 44.2338 16.2491C44.2338 11.051 40.0038 6.82096 34.8057 6.82096ZM34.8057 26.5725C29.1132 26.5725 24.4822 21.9416 24.4822 16.2491C24.4822 10.5566 29.1132 5.92566 34.8057 5.92566C40.4982 5.92566 45.1291 10.5566 45.1291 16.2491C45.1291 21.9416 40.4982 26.5725 34.8057 26.5725Z" fill="#191919"/>
<path d="M34.8058 8.79718C30.696 8.79718 27.3538 12.1393 27.3538 16.2491C27.3538 20.3589 30.696 23.7011 34.8058 23.7011C38.9155 23.7011 42.2577 20.3589 42.2577 16.2491C42.2577 12.1393 38.9155 8.79718 34.8058 8.79718ZM34.8058 24.5978C30.203 24.5978 26.457 20.8518 26.457 16.2491C26.457 11.6449 30.203 7.90039 34.8058 7.90039C39.4085 7.90039 43.1545 11.6449 43.1545 16.2491C43.1545 20.8518 39.4085 24.5978 34.8058 24.5978Z" fill="#191919"/>
<path d="M34.8058 10.7718C31.7858 10.7718 29.3286 13.229 29.3286 16.249C29.3286 19.269 31.7858 21.7262 34.8058 21.7262C37.8258 21.7262 40.283 19.269 40.283 16.249C40.283 13.229 37.8258 10.7718 34.8058 10.7718ZM34.8058 22.6215C31.2914 22.6215 28.4333 19.7634 28.4333 16.249C28.4333 12.7346 31.2914 9.875 34.8058 9.875C38.3202 9.875 41.1783 12.7346 41.1783 16.249C41.1783 19.7634 38.3202 22.6215 34.8058 22.6215Z" fill="#191919"/>
<path d="M34.8059 12.7465C32.8742 12.7465 31.3034 14.3174 31.3034 16.249C31.3034 18.1792 32.8742 19.7515 34.8059 19.7515C36.7376 19.7515 38.3084 18.1792 38.3084 16.249C38.3084 14.3174 36.7376 12.7465 34.8059 12.7465ZM34.8059 20.6468C32.3813 20.6468 30.4081 18.6736 30.4081 16.249C30.4081 13.8244 32.3813 11.8512 34.8059 11.8512C37.2305 11.8512 39.2037 13.8244 39.2037 16.249C39.2037 18.6736 37.2305 20.6468 34.8059 20.6468Z" fill="#191919"/>
<path d="M34.806 14.7212C33.9641 14.7212 33.2782 15.4072 33.2782 16.249C33.2782 17.0909 33.9641 17.7754 34.806 17.7754C35.6478 17.7754 36.3338 17.0909 36.3338 16.249C36.3338 15.4072 35.6478 14.7212 34.806 14.7212ZM34.806 18.6721C33.4697 18.6721 32.3829 17.5853 32.3829 16.249C32.3829 14.9128 33.4697 13.8259 34.806 13.8259C36.1423 13.8259 37.2291 14.9128 37.2291 16.249C37.2291 17.5853 36.1423 18.6721 34.806 18.6721Z" fill="#191919"/>
<path d="M4.69253 49.1103C3.11276 49.1103 1.95021 48.7866 1.20635 48.1363C0.544152 47.5632 0.214539 46.7792 0.214539 45.7844C0.214539 44.7912 0.544152 44.0057 1.20635 43.4267C1.95021 42.7823 3.11276 42.4586 4.69253 42.4586C5.61901 42.4586 6.38514 42.5655 6.99092 42.7793C7.59669 42.9902 8.06587 43.2782 8.39846 43.6464C8.73401 44.0146 8.95821 44.4363 9.06956 44.9114H6.24855C5.96644 44.417 5.44827 44.169 4.69253 44.169C4.04221 44.169 3.56561 44.3561 3.26124 44.7273C3.01922 45.0243 2.89896 45.3776 2.89896 45.7844C2.89896 46.1928 3.01922 46.5446 3.26124 46.8416C3.56561 47.2143 4.04221 47.3999 4.69253 47.3999C5.44827 47.3999 5.96644 47.1504 6.24855 46.6515H9.06956C8.95821 47.1311 8.73401 47.5543 8.39846 47.9225C8.06587 48.2907 7.59669 48.5817 6.99092 48.7955C6.38514 49.0049 5.61901 49.1103 4.69253 49.1103Z" fill="#191919"/>
<path d="M18.8583 48.9737H16.3283C16.2095 48.8119 16.1263 48.6055 16.0788 48.3561C16.0387 48.166 15.9779 47.9789 15.8947 47.7919C15.8116 47.6063 15.6661 47.4519 15.4612 47.3286C15.2593 47.2069 14.9578 47.1386 14.5585 47.1267H12.8183V48.9737H10.1339V42.5834H14.4931C15.5384 42.5834 16.3788 42.6606 17.0172 42.815C17.6586 42.9694 18.1248 43.2159 18.4188 43.5514C18.7113 43.884 18.8583 44.3205 18.8583 44.858C18.8583 45.3064 18.7573 45.6835 18.5554 45.9924C18.3535 46.2982 18.0328 46.5387 17.5933 46.7169C18.0164 46.8921 18.2911 47.1015 18.4188 47.3464C18.545 47.5929 18.6222 47.8616 18.6504 48.1541C18.6816 48.4155 18.7514 48.6886 18.8583 48.9737ZM12.8183 45.5529L14.3506 45.5469C14.7782 45.5469 15.1137 45.5291 15.3602 45.4935C15.6052 45.4549 15.7849 45.4014 15.9007 45.3331C16.0194 45.2663 16.0937 45.1936 16.1263 45.1134C16.162 45.0302 16.1798 44.9456 16.1798 44.858C16.1798 44.7719 16.162 44.6858 16.1263 44.6026C16.0937 44.5195 16.0194 44.4452 15.9007 44.3769C15.7849 44.3101 15.6052 44.2582 15.3602 44.2225C15.1137 44.1839 14.7782 44.1631 14.3506 44.1631H12.8183V45.5529Z" fill="#191919"/>
<path d="M27.6209 48.9737H19.924V42.5834H27.2705V44.1631H22.6084V45.1668H26.546V46.3962H22.6084V47.394H27.6209V48.9737Z" fill="#191919"/>
<path d="M38.7107 48.9737H35.9906L35.3908 47.9285H31.3582L30.7584 48.9737H28.0383L32.1303 42.5834H34.6187L38.7107 48.9737ZM34.4881 46.3428L33.3775 44.4066L32.2609 46.3428H34.4881Z" fill="#191919"/>
<path d="M44.2213 48.9737H41.5428V44.1631H39.0366V42.5834H46.7275V44.1631H44.2213V48.9737Z" fill="#191919"/>
<path d="M50.3848 48.9737H47.7004V42.5834H50.3848V48.9737Z" fill="#191919"/>
<path d="M57.2335 48.9737H54.7392L51.158 42.5834H53.878L55.9864 47.1505L58.0947 42.5834H60.8147L57.2335 48.9737Z" fill="#191919"/>
<path d="M69.2833 48.9737H61.5864V42.5834H68.9329V44.1631H64.2708V45.1668H68.2083V46.3962H64.2708V47.394H69.2833V48.9737Z" fill="#191919"/>
<path d="M14.143 60C13.2789 60 12.5825 59.9065 12.0525 59.7209C11.5254 59.5353 11.123 59.2799 10.8469 58.9547C10.5692 58.6311 10.3836 58.2569 10.2886 57.8323H13.1393C13.3487 58.1337 13.6827 58.2836 14.143 58.2836C14.6018 58.2836 14.9388 58.1337 15.1526 57.8323C15.1675 57.8011 15.1764 57.7729 15.1764 57.7491C15.1764 57.6704 15.0695 57.6111 14.8557 57.571C14.6449 57.5324 14.3286 57.5027 13.9055 57.4819C13.3739 57.4581 12.8156 57.4017 12.2307 57.3096C10.9271 57.1077 10.2767 56.5836 10.2767 55.7358C10.2767 55.6645 10.2797 55.5903 10.2886 55.5101C10.3836 55.087 10.5692 54.7128 10.8469 54.3877C11.123 54.064 11.5254 53.8086 12.0525 53.6215C12.5825 53.4359 13.2789 53.3424 14.143 53.3424C15.0056 53.3424 15.7005 53.4359 16.2276 53.6215C16.7576 53.8086 17.1615 54.064 17.4391 54.3877C17.7153 54.7128 17.9024 55.087 17.9974 55.5101H15.1526C14.9388 55.2102 14.6018 55.0588 14.143 55.0588C13.6827 55.0588 13.3487 55.2102 13.1393 55.5101C13.123 55.5339 13.1156 55.5562 13.1156 55.5755C13.1156 55.6467 13.2165 55.7002 13.4185 55.7358C13.6234 55.7715 13.9248 55.8011 14.3212 55.8249C14.7161 55.8487 15.1378 55.8887 15.5862 55.9437C16.0331 55.9956 16.4533 56.0862 16.8452 56.2169C17.2372 56.3475 17.5416 56.5435 17.7599 56.8048C17.9336 57.0038 18.0212 57.2547 18.0212 57.5591C18.0212 57.6467 18.0123 57.7373 17.9974 57.8323C17.9024 58.2569 17.7153 58.6311 17.4391 58.9547C17.1615 59.2799 16.7576 59.5353 16.2276 59.7209C15.7005 59.9065 15.0056 60 14.143 60Z" fill="#191919"/>
<path d="M23.8221 59.8634H21.1436V55.0528H18.6373V53.473H26.3283V55.0528H23.8221V59.8634Z" fill="#191919"/>
<path d="M31.0846 60C29.5241 60 28.4269 59.6778 27.7944 59.0319C27.2599 58.4855 26.9926 57.7001 26.9926 56.6741V53.473H29.6711V56.6741C29.6711 57.1181 29.7453 57.47 29.8968 57.7313C30.1136 58.0995 30.51 58.2836 31.0846 58.2836C31.6621 58.2836 32.0586 58.0995 32.2724 57.7313C32.4223 57.4625 32.4981 57.1106 32.4981 56.6741V53.473H35.1825V56.7098C35.1825 57.712 34.9167 58.4855 34.3866 59.0319C33.7452 59.6778 32.6436 60 31.0846 60Z" fill="#191919"/>
<path d="M40.5662 59.8634H36.2902V53.473H40.5662C42.3153 53.473 43.5728 53.7165 44.3375 54.2035C44.9551 54.5999 45.307 55.1389 45.3946 55.8189C45.4332 56.1129 45.454 56.395 45.454 56.6682C45.454 56.9384 45.4332 57.2205 45.3946 57.5175C45.359 57.8144 45.2595 58.1025 45.0977 58.3786C44.9388 58.6563 44.6849 58.9057 44.3375 59.1269C43.9886 59.3496 43.509 59.5278 42.9003 59.6614C42.2945 59.7966 41.5165 59.8634 40.5662 59.8634ZM40.3109 58.2836C41.6768 58.2836 42.4489 57.9391 42.6271 57.2502C42.6746 57.0572 42.6983 56.8627 42.6983 56.6682C42.6983 56.4752 42.6716 56.2822 42.6211 56.0921C42.5736 55.8991 42.4697 55.7239 42.3123 55.5695C42.1534 55.4121 41.9144 55.2874 41.5937 55.1953C41.2759 55.1003 40.8483 55.0528 40.3109 55.0528H38.9746V58.2836H40.3109Z" fill="#191919"/>
<path d="M49.201 59.8634H46.5166V53.473H49.201V59.8634Z" fill="#191919"/>
<path d="M54.7429 60C53.1632 60 52.0006 59.6763 51.2568 59.026C50.5946 58.4484 50.265 57.663 50.265 56.6682C50.265 55.6794 50.5946 54.8955 51.2568 54.3164C52.0006 53.6676 53.1632 53.3424 54.7429 53.3424C56.3227 53.3424 57.4838 53.6676 58.2291 54.3164C58.8898 54.8955 59.2209 55.6794 59.2209 56.6682C59.2209 57.663 58.8898 58.4484 58.2291 59.026C57.4838 59.6763 56.3227 60 54.7429 60ZM54.7429 58.2836C55.3873 58.2836 55.8624 58.0995 56.1683 57.7313C56.4088 57.4314 56.5306 57.0765 56.5306 56.6682C56.5306 56.2614 56.4088 55.908 56.1683 55.6111C55.8624 55.2399 55.3873 55.0528 54.7429 55.0528C54.0926 55.0528 53.616 55.2399 53.3117 55.6111C53.0696 55.908 52.9494 56.2614 52.9494 56.6682C52.9494 57.0765 53.0696 57.4314 53.3117 57.7313C53.616 58.0995 54.0926 58.2836 54.7429 58.2836Z" fill="#191919"/>
</svg>
