<svg width="76" height="70" viewBox="0 0 76 70" fill="none" xmlns="http://www.w3.org/2000/svg">
<path d="M0.802124 59.3555H1.9722V50.042H0.802124V59.3555Z" fill="#191919"/>
<path d="M13.4541 50.0417V57.2265L8.2379 50.0417H7.17419V59.3552H8.31869V52.0911L13.613 59.3552H14.5973V50.0417H13.4541Z" fill="#191919"/>
<path d="M26.0405 50.042L23.0743 57.6132L20.0663 50.042H18.7764L22.5411 59.3555H23.6196L27.3183 50.042H26.0405Z" fill="#191919"/>
<path d="M31.5365 59.3555H32.7066V50.042H31.5365V59.3555Z" fill="#191919"/>
<path d="M40.6901 59.4752C42.5388 59.4752 43.9768 58.4775 43.9768 56.7204C43.9768 54.7788 42.3261 54.3923 40.8625 54.0328C39.6654 53.7541 38.5883 53.4875 38.5883 52.4763C38.5883 51.585 39.4392 51.0531 40.5703 51.0531C41.7013 51.0531 42.5523 51.6523 42.5523 52.6891H43.7102C43.7102 51.0006 42.5267 49.9355 40.5972 49.9355C38.6677 49.9355 37.4303 50.9063 37.4303 52.5167C37.4303 54.3789 39.0138 54.7653 40.4504 55.0979C41.6609 55.3901 42.765 55.6432 42.765 56.7338C42.765 57.7195 41.8481 58.3307 40.6766 58.3307C39.3867 58.3307 38.4415 57.6521 38.4415 56.4955H37.2445C37.2445 58.3307 38.6408 59.4752 40.6901 59.4752Z" fill="#191919"/>
<path d="M48.5135 59.3555H49.6836V50.042H48.5135V59.3555Z" fill="#191919"/>
<path d="M59.1305 59.5156C61.9513 59.5156 63.9993 57.4528 63.9993 54.7114C63.9993 51.9579 61.9513 49.8951 59.1305 49.8951C56.3096 49.8951 54.2468 51.9579 54.2468 54.7114C54.2468 57.4528 56.3096 59.5156 59.1305 59.5156ZM59.1305 58.3711C57.0152 58.3711 55.4452 56.7877 55.4452 54.7114C55.4452 52.6231 57.0152 51.0396 59.1305 51.0396C61.2457 51.0396 62.8157 52.6096 62.8157 54.7114C62.8157 56.8012 61.2457 58.3711 59.1305 58.3711Z" fill="#191919"/>
<path d="M74.8569 50.042V57.2267L69.6407 50.042H68.577V59.3555H69.7215V52.0913L75.0158 59.3555H76.0001V50.042H74.8569Z" fill="#191919"/>
<path d="M18.8759 69.6055C19.6057 69.6055 20.1739 69.2124 20.1739 68.5189C20.1739 67.7515 19.5222 67.5993 18.9446 67.4566C18.472 67.3462 18.0465 67.2411 18.0465 66.8426C18.0465 66.4912 18.3818 66.2798 18.8288 66.2798C19.2758 66.2798 19.6111 66.5167 19.6111 66.9261H20.0689C20.0689 66.2596 19.6003 65.8395 18.8396 65.8395C18.0775 65.8395 17.5887 66.2232 17.5887 66.8588C17.5887 67.5939 18.2135 67.7461 18.7817 67.878C19.2597 67.9925 19.6959 68.0921 19.6959 68.523C19.6959 68.9121 19.3324 69.1545 18.8705 69.1545C18.3616 69.1545 17.9886 68.8865 17.9886 68.4287H17.516C17.516 69.1545 18.0667 69.6055 18.8759 69.6055Z" fill="#191919"/>
<path d="M28.7833 70L28.0684 69.1746C28.4736 68.8285 28.7147 68.3182 28.7147 67.7244C28.7147 66.6379 27.9054 65.8232 26.7919 65.8232C25.6784 65.8232 24.8638 66.6379 24.8638 67.7244C24.8638 68.807 25.6784 69.6216 26.7919 69.6216C27.1285 69.6216 27.4436 69.5476 27.7115 69.4116L28.2165 70H28.7833ZM26.7919 69.1692C25.9571 69.1692 25.3377 68.5444 25.3377 67.7244C25.3377 66.9004 25.9571 66.2757 26.7919 66.2757C27.6281 66.2757 28.2474 66.895 28.2474 67.7244C28.2474 68.1715 28.063 68.5606 27.7641 68.8178L27.1016 68.0503H26.5401L27.4019 69.0494C27.2174 69.1275 27.0127 69.1692 26.7919 69.1692Z" fill="#191919"/>
<path d="M35.0765 69.6216C35.9019 69.6216 36.5158 69.0278 36.5158 68.193V65.8811H36.054V68.1553C36.054 68.7652 35.6447 69.1692 35.0765 69.1692C34.5042 69.1692 34.1003 68.7652 34.1003 68.1553V65.8811H33.6317V68.193C33.6317 69.0278 34.247 69.6216 35.0765 69.6216Z" fill="#191919"/>
<path d="M44.2479 69.5583H44.7474L43.2031 65.8811H42.7722L41.2695 69.5583H41.7583L42.1151 68.6804H43.8857L44.2479 69.5583ZM42.993 66.5166L43.7134 68.2549H42.2888L42.993 66.5166Z" fill="#191919"/>
<path d="M51.6867 69.5583H52.2077L51.3245 68.0664C51.8078 67.9304 52.1391 67.5251 52.1391 67.0054C52.1391 66.3537 51.6301 65.8811 50.9407 65.8811H49.5444V69.5583H50.0063V68.1243H50.8411L51.6867 69.5583ZM50.0063 66.3227H50.9151C51.3662 66.3227 51.6665 66.6109 51.6665 67.0054C51.6665 67.3986 51.3662 67.6827 50.9151 67.6827H50.0063V66.3227Z" fill="#191919"/>
<path d="M57.5921 69.1167V67.8819H59.0732V67.4565H57.5921V66.3227H59.2105V65.8811H57.1302V69.5583H59.2684V69.1167H57.5921Z" fill="#191919"/>
<path d="M21.6966 3.01208H30.4634L29.3109 4.13234H22.2567V11.1784L21.1365 12.339V3.01208H21.6966ZM33.6532 3.01208H43.1512L44.2714 4.13234H32.5329L33.6532 3.01208ZM46.3732 3.01208H55.7002V12.339L54.5476 11.1865V4.13234H47.5016L46.3732 3.01208ZM55.7002 15.5302V25.0268L54.5476 26.147V14.4099L55.7002 15.5302ZM55.7002 28.2502V37.5772H46.3732L47.4935 36.4246H54.5396V29.3785L55.7002 28.2502ZM43.1512 37.5772H33.6532L32.5329 36.4246H44.2714L43.1512 37.5772ZM30.4634 37.5772H21.1365V28.2502L22.2567 29.3705V36.4165H29.3028L30.4634 37.5772ZM21.1365 25.0268V15.5302L22.2567 14.4099V26.147L21.1365 25.0268Z" fill="#191919"/>
<path d="M42.7275 0.17908L58.7113 16.163V24.4343L42.5497 40.5878H34.2851L18.1235 24.4262C18.1235 21.6579 18.1235 18.8909 18.1235 16.1549C23.4892 10.765 28.8872 5.36701 34.2851 0H42.5578L42.7275 0.17908ZM57.5588 16.6167L42.0623 1.12026H34.7402L19.2438 16.6167V23.9388L34.7322 39.4272H42.0542L57.5426 23.9388V16.6167H57.5588Z" fill="#191919"/>
<path d="M38.7994 3.40256L42.8994 7.5012H41.2836L38.4183 4.59553L35.5127 7.5012H33.9373L38.4183 3.01208L38.7994 3.40256ZM45.1803 9.78211L48.9302 13.5334V15.1074L43.5645 9.78211H45.1803ZM51.2111 15.8062L55.7002 20.2939L51.2111 24.7831V23.1686L54.0858 20.2939L51.2111 17.3883V15.8062ZM48.9302 27.0559L45.1803 30.8071H43.5645L48.9302 25.4415V27.0559ZM42.9074 33.088L38.4183 37.5772L33.9292 33.088H35.5046L38.4183 35.9614L41.2917 33.088H42.9074ZM31.6564 30.8071L27.9065 27.0559V25.4415L33.2318 30.8071H31.6564ZM25.6256 24.7831L21.1365 20.2939L25.6256 15.8062V17.3802L22.7186 20.2939L25.6256 23.1686V24.7831ZM27.9065 13.5334L31.6564 9.78211H33.2318L27.9065 15.1074V13.5334Z" fill="#191919"/>
<path d="M50.6182 12.4777V28.3229L46.6165 32.3488L46.1951 32.4875H30.6004L30.2193 32.3488L26.1853 28.3148V12.234L30.3566 8.06128H46.4455L50.6182 12.234V12.4777ZM49.4899 27.8678V12.7214L45.9837 9.18154H30.8441L27.3056 12.7214V27.8597L30.8441 31.3672H45.9837L49.4899 27.8678Z" fill="#191919"/>
<path d="M38.7986 8.69418L43.1099 13.0056L38.4175 17.737L33.6847 13.0056L38.4175 8.30505L38.7986 8.69418ZM41.5346 13.0056L38.4175 9.84675L35.2601 13.0056L38.4175 16.163L41.5346 13.0056Z" fill="#191919"/>
<path d="M50.0177 20.6764L45.6754 24.9864L40.9749 20.294L45.6754 15.5625L50.4068 20.294L50.0177 20.6764ZM45.6754 23.4528L48.8328 20.294L45.6754 17.1365L42.5502 20.294L45.6754 23.4528Z" fill="#191919"/>
<path d="M38.0369 31.895L33.6932 27.5513L38.4261 22.8522L43.1266 27.5513L38.418 32.2842L38.0369 31.895ZM35.2605 27.5513L38.418 30.7088L41.535 27.5513L38.418 24.4262L35.2605 27.5513Z" fill="#191919"/>
<path d="M26.818 19.9129L31.128 15.5706L35.8608 20.3034L31.128 25.0025L26.4275 20.294L26.818 19.9129ZM31.128 17.1365L27.9705 20.294L31.128 23.4528L34.2855 20.294L31.128 17.1365Z" fill="#191919"/>
<path d="M38.799 16.5117L42.5825 20.2939L38.4179 24.4666L34.2452 20.2939L38.4179 16.1226L38.799 16.5117ZM41.0153 20.2939L38.4179 17.6966L35.8206 20.2939L38.4179 22.8926L41.0153 20.2939Z" fill="#191919"/>
</svg>
