<svg width="124" height="36" viewBox="0 0 124 36" fill="none" xmlns="http://www.w3.org/2000/svg">
<path fill-rule="evenodd" clip-rule="evenodd" d="M0.739502 0.5H123.587V35.5H0.739502V0.5ZM2.40617 2.16667V33.8333H121.92V2.16667H2.40617Z" fill="#191919"/>
<path d="M4.84778 4.46912H62.1377V31.5525H4.84778V4.46912Z" fill="#191919"/>
<path d="M12.1022 22.585H13.1692L16.7843 13.483H15.5745L14.0536 17.3188L12.6357 20.9338L11.2052 17.3188L9.697 13.483H8.47449L12.1022 22.585Z" fill="#FDFBF5"/>
<path d="M19.3162 22.585H20.4609V13.483H19.3162V22.585Z" fill="#FDFBF5"/>
<path d="M27.1313 22.7532C29.1206 22.7532 30.4082 21.7785 30.4082 20.1925C30.4082 18.8524 29.5112 18.0476 27.1838 17.4744C25.4151 17.0458 24.8292 16.5774 24.8292 15.8232C24.8292 14.9516 25.6104 14.4054 26.9107 14.4054C28.2489 14.4054 29.0808 15.0818 29.1079 16.1741H30.2382C30.2256 14.4054 28.9506 13.3131 26.9107 13.3131C24.9196 13.3131 23.6591 14.2897 23.6591 15.8232C23.6591 17.2284 24.661 18.0078 26.8962 18.5413C28.5347 18.9302 29.2237 19.3859 29.2237 20.2322C29.2237 21.1292 28.4189 21.6609 27.1313 21.6609C25.7135 21.6609 24.7261 20.9592 24.6989 19.7892H23.5542C23.5687 21.5705 24.9594 22.7532 27.1313 22.7532Z" fill="#FDFBF5"/>
<path d="M33.4991 22.585H34.6439V13.483H33.4991V22.585Z" fill="#FDFBF5"/>
<path d="M42.4189 22.7532C45.1895 22.7532 47.139 20.8037 47.139 18.0332C47.139 15.2644 45.1895 13.3131 42.4189 13.3131C39.6484 13.3131 37.7115 15.2644 37.7115 18.0332C37.7115 20.8037 39.6484 22.7532 42.4189 22.7532ZM38.8816 18.0332C38.8816 15.9137 40.3248 14.4579 42.4189 14.4579C44.5131 14.4579 45.9563 15.9137 45.9563 18.0332C45.9563 20.1527 44.5131 21.6103 42.4189 21.6103C40.3248 21.6103 38.8816 20.1527 38.8816 18.0332Z" fill="#FDFBF5"/>
<path d="M50.1908 22.585H51.3229V15.4597L56.3558 22.585H57.421V13.483H56.3034V20.6083L51.2704 13.483H50.1908V22.585Z" fill="#FDFBF5"/>
<path d="M70.5145 22.5031C72.7769 22.5031 74.1151 21.4361 74.1151 19.6421C74.1151 18.1338 73.1404 17.2495 70.9305 16.7558C69.7604 16.4954 69.3318 16.2096 69.3318 15.7413C69.3318 15.2982 69.7206 15.0251 70.3319 15.0251C71.0607 15.0251 71.4766 15.4031 71.4766 16.0921H73.947C73.947 14.2204 72.5165 13.0105 70.2794 13.0105C68.1346 13.0105 66.809 14.0775 66.809 15.7937C66.809 17.3273 67.8091 18.2767 69.8635 18.6673C70.9684 18.888 71.5019 19.2261 71.5019 19.747C71.5019 20.2009 71.1131 20.4613 70.4747 20.4613C69.7206 20.4613 69.2793 20.058 69.2793 19.3563H66.7439C66.7439 21.3203 68.1473 22.5031 70.5145 22.5031Z" fill="#191919"/>
<path d="M77.7306 22.3077H80.3438V15.6364H83.1144V13.2058H74.9601V15.6364H77.7306V22.3077Z" fill="#191919"/>
<path d="M88.3528 22.5031C90.8105 22.5031 92.3332 21.0075 92.3332 18.5624V13.2058H89.7182V18.3943C89.7182 19.4739 89.2643 20.0454 88.3528 20.0454C87.4432 20.0454 86.9874 19.4739 86.9874 18.3943V13.2058H84.3616V18.5624C84.3616 21.0075 85.8951 22.5031 88.3528 22.5031Z" fill="#191919"/>
<path d="M94.191 22.3077H98.0539C100.993 22.3077 102.942 20.5011 102.942 17.7559C102.942 15.0251 100.993 13.2058 98.0539 13.2058H94.191V22.3077ZM96.8169 19.9549V15.5586H97.9743C99.3668 15.5586 100.264 16.4176 100.264 17.7559C100.264 19.0959 99.3668 19.9549 97.9743 19.9549H96.8169Z" fill="#191919"/>
<path d="M104.346 22.3077H106.972V13.2058H104.346V22.3077Z" fill="#191919"/>
<path d="M113.331 22.5031C116.23 22.5031 118.284 20.5391 118.284 17.7559C118.284 14.9745 116.23 13.0105 113.331 13.0105C110.432 13.0105 108.376 14.9745 108.376 17.7559C108.376 20.5391 110.432 22.5031 113.331 22.5031ZM111.042 17.7559C111.042 16.3905 111.991 15.4429 113.331 15.4429C114.684 15.4429 115.619 16.3905 115.619 17.7559C115.619 19.1212 114.684 20.0707 113.331 20.0707C111.991 20.0707 111.042 19.1212 111.042 17.7559Z" fill="#191919"/>
</svg>
