<svg width="74" height="60" viewBox="0 0 74 60" fill="none" xmlns="http://www.w3.org/2000/svg">
<path d="M3.74354 48.2026L0.422485 59.8369H1.57249L2.3988 56.8842H6.6067L7.43302 59.8369H8.58565L5.2646 48.2026H3.74354ZM4.49617 49.3711L6.32775 55.9237H2.66459L4.49617 49.3711Z" fill="#191919"/>
<path d="M13.5304 48.0261H12.4961V57.6235L12.4093 59.8367H13.2646L13.4119 58.7735C13.8251 59.4525 14.5488 59.9998 15.7435 59.9998C17.8856 59.9998 18.7409 58.2709 18.7409 56.1024V55.7472C18.7409 53.5761 17.8856 51.8498 15.7435 51.8498C14.6514 51.8498 13.9435 52.3235 13.5304 52.913V48.0261ZM13.5304 53.9893C13.8409 53.4735 14.4461 52.7788 15.5093 52.7788C16.9856 52.7788 17.6777 53.9314 17.6777 55.7472V56.1024C17.6777 57.9182 16.9856 59.0682 15.5093 59.0682C14.4461 59.0682 13.8409 58.3761 13.5304 57.8577V53.9893Z" fill="#191919"/>
<path d="M25.812 59.1289C24.262 59.1289 23.8331 58.3026 23.8331 57.4447H22.8015V57.5052C22.8015 58.7 23.5989 60 25.812 60C27.7463 60 28.8252 59.0552 28.8252 57.6974V57.6237C28.8252 56.1895 27.9831 55.6289 26.0199 55.4658C24.3226 55.3342 23.9384 54.8921 23.9384 54.0789C23.9384 53.2079 24.6305 52.721 25.812 52.721C27.2752 52.721 27.7173 53.4158 27.7173 54.5368H28.7357V54.4789C28.7357 52.9421 27.9542 51.85 25.812 51.85C23.9831 51.85 22.9041 52.721 22.9041 54.0789V54.1684C22.9041 55.3342 23.5094 56.071 25.6199 56.25C27.141 56.3816 27.762 56.6342 27.762 57.6974C27.762 58.5684 27.0831 59.1289 25.812 59.1289Z" fill="#191919"/>
<path d="M34.9058 52.0132V49.7974H33.8716V52.0132H32.6321V52.9421H33.8716V57.6658C33.8716 59.3632 34.8321 60 36.161 60C36.7795 60 37.1347 59.8816 37.2531 59.8368V58.9368C37.1347 58.9947 36.7347 59.0684 36.411 59.0684C35.4216 59.0684 34.9058 58.7737 34.9058 57.5342V52.9421H37.4005V52.0132H34.9058Z" fill="#191919"/>
<path d="M44.6629 51.85C43.6156 51.85 42.8919 52.3973 42.4787 53.0447L42.3313 52.0131H41.4761L41.5629 54.2263V59.8368H42.5971V54.0342C42.9208 53.5184 43.4971 52.8526 44.6787 52.8526H44.884V51.8658C44.8708 51.8658 44.7682 51.85 44.6629 51.85Z" fill="#191919"/>
<path d="M53.8622 59.8368H54.7175L54.628 57.6237V54.7579C54.628 53.0316 53.9648 51.85 51.7938 51.85C49.4911 51.85 48.9753 53.2816 48.9753 54.4631V54.5947H49.9648C49.9648 53.5763 50.3043 52.721 51.7806 52.721C53.1675 52.721 53.5964 53.4158 53.5964 54.7579V54.9658L51.2332 55.3342C49.9648 55.5263 48.678 56.0131 48.678 57.7105V57.8579C48.678 59.1131 49.5069 60 50.9385 60C52.2964 60 53.1806 59.4237 53.699 58.7447L53.8622 59.8368ZM51.2043 59.1C50.1543 59.1 49.7122 58.4631 49.7122 57.771V57.6368C49.7122 56.7526 50.3175 56.2631 51.3227 56.0868L53.5964 55.7184V57.8579C53.3148 58.3158 52.6517 59.1 51.2043 59.1Z" fill="#191919"/>
<path d="M59.8535 56.1026V55.7473C59.8535 53.9605 60.5325 52.7789 62.0825 52.7789C63.5009 52.7789 64.0772 53.6816 64.0772 54.8763H65.0667V54.5816C65.0667 53.3105 64.2246 51.85 62.0693 51.85C59.7798 51.85 58.8062 53.5763 58.8062 55.7473V56.1026C58.8062 58.271 59.7798 60 62.0693 60C64.2246 60 65.0667 58.5974 65.0667 57.3579V57.121H64.0772C64.0772 58.1395 63.5456 59.0684 62.0825 59.0684C60.5325 59.0684 59.8535 57.8868 59.8535 56.1026Z" fill="#191919"/>
<path d="M71.0295 52.0132V49.7974H69.9953V52.0132H68.7559V52.9421H69.9953V57.6658C69.9953 59.3632 70.9559 60 72.2848 60C72.9032 60 73.2585 59.8816 73.3769 59.8368V58.9368C73.2585 58.9947 72.8585 59.0684 72.5348 59.0684C71.5453 59.0684 71.0295 58.7737 71.0295 57.5342V52.9421H73.5243V52.0132H71.0295Z" fill="#191919"/>
<path d="M53.1265 32.8369H54.1317V33.8395H53.1265V32.8369Z" fill="#191919"/>
<path d="M20.2922 1.01575H21.308V32.8368H20.2922V1.01575Z" fill="#191919"/>
<path d="M20.2922 32.8369H21.308V33.8395H20.2922V32.8369Z" fill="#191919"/>
<path d="M53.1265 1.01575H54.1317V32.8368H53.1265V1.01575Z" fill="#191919"/>
<path d="M21.3081 32.8369H53.1266V33.8395H21.3081V32.8369Z" fill="#191919"/>
<path d="M53.1265 0H54.1317V1.01579H53.1265V0Z" fill="#191919"/>
<path d="M20.2922 0H21.308V1.01579H20.2922V0Z" fill="#191919"/>
<path d="M21.3081 0H53.1266V1.01579H21.3081V0Z" fill="#191919"/>
<path d="M24.7922 4.50269H49.3975V29.1053H24.7922V4.50269Z" fill="#191919"/>
<path d="M32.0001 15.6448H42.3238V17.9395H32.0001V15.6448Z" fill="#FDFBF5"/>
</svg>
