<svg width="81" height="81" viewBox="0 0 81 81" fill="none" xmlns="http://www.w3.org/2000/svg">
<path d="M80.4865 59.8411L80.4969 59.7994C80.499 59.789 80.499 59.7765 80.4969 59.7661C80.501 59.741 80.501 59.714 80.4969 59.6889V0.403282C80.501 0.376189 80.501 0.351179 80.4969 0.324085C80.499 0.313664 80.499 0.303243 80.4969 0.290738L80.4865 0.25114C80.4865 0.23655 80.4719 0.224045 80.4656 0.211541C80.4614 0.20112 80.4552 0.190699 80.4469 0.180279C80.4198 0.136511 80.3822 0.0989971 80.3385 0.0698187C80.3301 0.0635667 80.3239 0.0593977 80.3156 0.0552297L80.276 0.0323041L80.2364 0.0197992H80.2009C80.1738 0.0114631 80.1447 0.00521057 80.1155 0.00312602H20.8298C20.8048 -0.00104201 20.7777 -0.00104201 20.7527 0.00312602H20.7194L20.6777 0.0156309L20.6381 0.0364724C20.6277 0.0406409 20.6172 0.0468935 20.6089 0.0531456C20.586 0.0677347 20.5651 0.0844079 20.5485 0.103165L0.603165 20.0672C0.582324 20.0839 0.565651 20.1047 0.553146 20.1277C0.544809 20.136 0.540641 20.1485 0.534389 20.1589C0.534389 20.1714 0.5198 20.1818 0.513547 20.1964L0.503126 20.236C0.501042 20.2485 0.501042 20.259 0.503126 20.2715C0.498958 20.2965 0.498958 20.3236 0.503126 20.3486V79.6342C0.498958 79.6592 0.498958 79.6863 0.503126 79.7113C0.501042 79.7238 0.501042 79.7343 0.503126 79.7468L0.513547 79.7864C0.5198 79.801 0.528136 79.8135 0.536473 79.826C0.540641 79.8364 0.544809 79.8468 0.553146 79.8551C0.58024 79.901 0.617755 79.9364 0.661522 79.9656C0.671942 79.9739 0.682363 79.9781 0.692784 79.9823L0.732383 80.0031L0.771981 80.0156H0.807412C0.832421 80.0261 0.857432 80.0302 0.884525 80.0344H60.1702C60.1952 80.0365 60.2223 80.0365 60.2473 80.0344H60.2827L60.3223 80.0219L60.3619 80.001C60.3723 79.9969 60.3828 79.9906 60.3911 79.9844C60.414 79.9698 60.4349 79.9531 60.4515 79.9343L80.3968 59.9891C80.4177 59.9703 80.4343 59.9515 80.4469 59.9286C80.4552 59.9182 80.4594 59.9099 80.4635 59.8974C80.4719 59.8786 80.4802 59.8598 80.4865 59.8411ZM21.23 20.7487H59.77V59.2888H21.23V20.7487ZM60.5703 20.5153L79.7153 1.37033V59.2888H60.5703V20.5153ZM60.0035 19.9484H21.23V0.803439H79.1484L60.0035 19.9484ZM20.4297 19.9484H1.85157L20.4297 1.37033V19.9484ZM1.28468 20.7487H20.4297V59.5222L1.28468 78.6672V20.7487ZM20.9965 60.0891H59.77V79.2341H1.85157L20.9965 60.0891ZM60.5703 60.0891H79.1484L60.5703 78.6672V60.0891Z" fill="#191919"/>
</svg>
