<svg width="68" height="19" viewBox="0 0 68 19" fill="none" xmlns="http://www.w3.org/2000/svg">
<path d="M2.376 14.852V0.620003H0V14.924C0 17.564 1.032 18.26 3.552 18.26H4.008V16.22H3.648C2.688 16.22 2.376 15.908 2.376 14.852Z" fill="#222222"/>
<path d="M16.0933 14.588H13.7893C13.6213 15.596 12.9493 16.268 11.7013 16.364C11.5573 16.388 11.4373 16.412 11.2933 16.412C9.54131 16.412 8.65331 15.38 8.50931 13.676C8.48531 13.364 8.46131 13.028 8.43731 12.668H16.1653V11.444C16.1653 7.94 14.2213 6.092 11.1973 6.092C8.05331 6.092 6.01331 7.892 6.01331 11.348V13.1C6.01331 16.58 8.07731 18.38 11.1733 18.38C13.9333 18.38 15.7813 17.012 16.0933 14.588ZM8.43731 11.06C8.50931 9.212 9.37331 8.036 11.2213 8.036C13.0213 8.036 13.8133 9.02 13.9093 11.18H8.65331L8.43731 11.06Z" fill="#222222"/>
<path d="M28.8902 14.588H26.5862C26.4182 15.596 25.7462 16.268 24.4982 16.364C24.3542 16.388 24.2342 16.412 24.0902 16.412C22.3382 16.412 21.4502 15.38 21.3062 13.676C21.2822 13.364 21.2582 13.028 21.2342 12.668H28.9622V11.444C28.9622 7.94 27.0182 6.092 23.9942 6.092C20.8502 6.092 18.8102 7.892 18.8102 11.348V13.1C18.8102 16.58 20.8742 18.38 23.9702 18.38C26.7302 18.38 28.5782 17.012 28.8902 14.588ZM21.2342 11.06C21.3062 9.212 22.1702 8.036 24.0182 8.036C25.8182 8.036 26.6102 9.02 26.7062 11.18H21.4502L21.2342 11.06Z" fill="#222222"/>
<path d="M37.7271 18.14L41.9991 6.332H39.5271L36.4071 15.74L33.3111 6.332H30.7431L34.9671 18.14H37.7271Z" fill="#222222"/>
<path d="M45.5226 4.172C46.4586 4.172 47.0826 3.572 47.0826 2.756C47.0826 1.916 46.4586 1.34 45.5226 1.34C44.6106 1.34 43.9626 1.916 43.9626 2.756C43.9626 3.572 44.6106 4.172 45.5226 4.172ZM44.3466 18.14H46.6986V6.332H44.3466V18.14Z" fill="#222222"/>
<rect x="55.0826" y="3.5" width="12" height="12" rx="2" fill="#F2FF93"/>
</svg>
