<svg width="40" height="41" viewBox="0 0 40 41" fill="none" xmlns="http://www.w3.org/2000/svg">
<path d="M15.625 9.12598H6.25C5.66984 9.12598 5.11344 9.35644 4.7032 9.76668C4.29297 10.1769 4.0625 10.7333 4.0625 11.3135V21.3135C4.0625 21.8936 4.29297 22.45 4.7032 22.8603C5.11344 23.2705 5.66984 23.501 6.25 23.501H15.9375V25.0635C15.9334 26.4712 15.3723 27.82 14.377 28.8154C13.3816 29.8108 12.0327 30.3719 10.625 30.376C10.3764 30.376 10.1379 30.4747 9.96209 30.6506C9.78627 30.8264 9.6875 31.0648 9.6875 31.3135C9.6875 31.5621 9.78627 31.8006 9.96209 31.9764C10.1379 32.1522 10.3764 32.251 10.625 32.251C12.5312 32.251 14.3594 31.4937 15.7073 30.1458C17.0552 28.7979 17.8125 26.9697 17.8125 25.0635V11.3135C17.8125 10.7333 17.582 10.1769 17.1718 9.76668C16.7616 9.35644 16.2052 9.12598 15.625 9.12598ZM15.9375 21.626H6.25C6.16712 21.626 6.08763 21.5931 6.02903 21.5344C5.97042 21.4758 5.9375 21.3964 5.9375 21.3135V11.3135C5.9375 11.2306 5.97042 11.1511 6.02903 11.0925C6.08763 11.0339 6.16712 11.001 6.25 11.001H15.625C15.7079 11.001 15.7874 11.0339 15.846 11.0925C15.9046 11.1511 15.9375 11.2306 15.9375 11.3135V21.626ZM33.75 9.12598H24.375C23.7948 9.12598 23.2384 9.35644 22.8282 9.76668C22.418 10.1769 22.1875 10.7333 22.1875 11.3135V21.3135C22.1875 21.8936 22.418 22.45 22.8282 22.8603C23.2384 23.2705 23.7948 23.501 24.375 23.501H34.0625V25.0635C34.0584 26.4712 33.4973 27.82 32.5019 28.8154C31.5066 29.8108 30.1577 30.3719 28.75 30.376C28.5014 30.376 28.2629 30.4747 28.0871 30.6506C27.9113 30.8264 27.8125 31.0648 27.8125 31.3135C27.8125 31.5621 27.9113 31.8006 28.0871 31.9764C28.2629 32.1522 28.5014 32.251 28.75 32.251C30.6562 32.251 32.4844 31.4937 33.8323 30.1458C35.1802 28.7979 35.9375 26.9697 35.9375 25.0635V11.3135C35.9375 10.7333 35.707 10.1769 35.2968 9.76668C34.8866 9.35644 34.3302 9.12598 33.75 9.12598ZM34.0625 21.626H24.375C24.2921 21.626 24.2126 21.5931 24.154 21.5344C24.0954 21.4758 24.0625 21.3964 24.0625 21.3135V11.3135C24.0625 11.2306 24.0954 11.1511 24.154 11.0925C24.2126 11.0339 24.2921 11.001 24.375 11.001H33.75C33.8329 11.001 33.9124 11.0339 33.971 11.0925C34.0296 11.1511 34.0625 11.2306 34.0625 11.3135V21.626Z" fill="#191919"/>
</svg>
