<svg width="60" height="60" viewBox="0 0 60 60" fill="none" xmlns="http://www.w3.org/2000/svg">
<path d="M29.9996 60C21.9901 60 14.4482 56.8819 8.78901 51.211C3.11732 45.551 0 38.0091 0 29.9996C0 21.9901 3.11732 14.4482 8.78901 8.78901C14.4482 3.11732 21.9901 0 29.9996 0C38.0091 0 45.551 3.11732 51.2102 8.78901C56.8819 14.4599 59.9992 21.9901 59.9992 29.9996C59.9992 38.0091 56.8819 45.551 51.2102 51.211C45.551 56.8819 38.0091 60 29.9996 60ZM29.9996 1.7983C22.4694 1.7983 15.3833 4.73579 10.0596 10.0596C4.73579 15.3833 1.7983 22.4702 1.7983 29.9996C1.7983 37.5298 4.73579 44.6159 10.0596 49.9397C15.3833 55.2634 22.4694 58.2009 29.9996 58.2009C37.5298 58.2009 44.6159 55.2634 49.9397 49.9397C55.2634 44.6159 58.2009 37.5298 58.2009 29.9996C58.2009 22.4702 55.2634 15.3833 49.9397 10.0596C44.6159 4.73579 37.5298 1.7983 29.9996 1.7983Z" fill="#191919"/>
<path d="M36.1358 16.9987C36.0146 16.8861 35.8254 16.8932 35.7128 17.0144L33.2827 19.6376L33.1162 19.4843L35.547 16.8611C35.6596 16.7399 35.6526 16.5507 35.5314 16.4381C35.4102 16.3255 35.221 16.3326 35.1076 16.4538L32.6776 19.0777L32.5118 18.9237L34.9426 16.3005C35.0544 16.1793 35.0474 15.9901 34.9262 15.8775C34.8058 15.7657 34.6158 15.7728 34.5032 15.894L32.0732 18.5171L31.9074 18.3631L34.3375 15.7407C34.4501 15.6187 34.443 15.4295 34.3218 15.3169C34.2006 15.2051 34.0114 15.2122 33.8988 15.3334L31.4688 17.9565L31.4672 17.9557L31.3914 18.0347C31.3241 18.1082 31.2632 18.1817 31.2084 18.2568L31.2061 18.2591C31.0004 18.5382 30.8832 18.8291 30.8839 19.1684C30.8847 19.5257 31.0098 19.8627 31.2381 20.1403C31.0849 20.3029 30.4008 20.9699 29.5767 21.7697C28.5915 20.7228 27.7213 19.7931 27.5461 19.5891C27.801 19.3068 27.9511 18.955 27.9691 18.5773C27.9863 18.2169 27.8761 17.9034 27.6728 17.5984H27.6736L27.6697 17.5945C27.6157 17.5124 27.5547 17.4319 27.4875 17.3506L27.4109 17.2638L27.4093 17.2646L27.1114 16.9534C25.4695 15.5194 24.6532 15.3951 24.1755 15.8048C23.6157 16.2841 23.4257 17.1176 24.6814 19.041L24.9574 19.4092L24.9581 19.41L24.9879 19.446C25.3241 19.8534 25.6478 20.084 26.1138 20.1426C26.4679 20.1864 26.8182 20.1106 27.1278 19.93C27.3022 20.1419 28.095 21.181 28.9809 22.3467C27.7627 23.5266 26.446 24.7979 26.1044 25.1372C25.8643 25.3663 25.7322 25.5219 25.7322 25.5219C25.4992 25.7729 25.5156 26.167 25.7689 26.4015C26.0223 26.6369 26.4163 26.6228 26.6493 26.3718C26.6493 26.3718 26.8143 26.1975 26.959 26.0278L26.9597 26.0286C27.1724 25.7838 28.3593 24.3601 29.4852 23.0105C30.5407 24.4023 31.5884 25.7854 31.7886 26.0372V26.0356C31.934 26.2225 32.0998 26.4156 32.0998 26.4156C32.3343 26.6939 32.7511 26.7276 33.031 26.4914C33.3109 26.2545 33.3476 25.8378 33.1131 25.561C33.1131 25.561 32.9809 25.389 32.7378 25.1349C32.4156 24.7838 31.235 23.5321 30.0771 22.3022C30.8316 21.4015 31.4641 20.6493 31.6173 20.4804C31.9004 20.6642 32.2272 20.7509 32.5626 20.7244C33.0044 20.69 33.3187 20.4874 33.6533 20.1184L33.683 20.0848L33.6846 20.084L36.1522 17.4209C36.264 17.2998 36.257 17.1105 36.1358 16.9987Z" fill="#191919"/>
<path d="M21.0809 30.2849C21.6892 30.2849 22.2232 30.4366 22.6822 30.7384L22.2944 31.5453C22.0817 31.4202 21.8534 31.3185 21.6095 31.2388C21.3655 31.1598 21.1599 31.12 20.9933 31.12C20.6947 31.12 20.5461 31.2192 20.5461 31.4171C20.5461 31.5445 20.6188 31.6469 20.765 31.7236C20.9128 31.801 21.0919 31.8674 21.303 31.9237C21.5156 31.98 21.7267 32.048 21.9378 32.127C22.1482 32.2068 22.3264 32.3358 22.4726 32.5148C22.6204 32.6923 22.6947 32.9167 22.6947 33.1872C22.6947 33.5774 22.5414 33.8815 22.235 34.1004C21.93 34.3194 21.5414 34.4288 21.0684 34.4288C20.7322 34.4288 20.3999 34.3718 20.0707 34.2568C19.7408 34.1403 19.4554 33.9808 19.2138 33.7783L19.6141 32.9839C19.8182 33.1614 20.059 33.3076 20.3366 33.4218C20.6157 33.5367 20.8636 33.5938 21.0809 33.5938C21.2475 33.5938 21.3765 33.5641 21.4687 33.5031C21.5625 33.4429 21.6095 33.3553 21.6095 33.2404C21.6095 33.1278 21.5563 33.034 21.45 32.9589C21.3436 32.8823 21.2107 32.826 21.0528 32.79C20.894 32.7525 20.722 32.704 20.5367 32.643C20.3506 32.5805 20.1779 32.5132 20.0176 32.4397C19.8588 32.3647 19.7267 32.2474 19.6204 32.0863C19.514 31.9261 19.4609 31.7345 19.4609 31.5109C19.4609 31.1379 19.6087 30.8408 19.905 30.6196C20.2005 30.3967 20.593 30.2849 21.0809 30.2849Z" fill="#191919"/>
<path d="M27.3194 30.3318V32.6868C27.3194 33.2247 27.1521 33.6524 26.819 33.9691C26.4875 34.2841 26.0372 34.4413 25.468 34.4413C24.8941 34.4413 24.439 34.2841 24.1013 33.9691C23.7635 33.6524 23.5946 33.2247 23.5946 32.6868V30.3318H24.6267V32.6868C24.6267 32.9581 24.7049 33.1739 24.8612 33.3342C25.0176 33.4952 25.2217 33.575 25.4742 33.575C25.7221 33.575 25.9199 33.496 26.0684 33.3373C26.2186 33.1794 26.2936 32.962 26.2936 32.6868V30.3318H27.3194Z" fill="#191919"/>
<path d="M28.4687 30.3318H30.2388C30.758 30.3318 31.1599 30.4553 31.4461 30.7008C31.7314 30.9471 31.8745 31.2966 31.8745 31.7485C31.8745 32.2239 31.7314 32.593 31.4461 32.8557C31.1599 33.1184 30.758 33.2497 30.2388 33.2497H29.5008V34.3944H28.4687V30.3318ZM29.5008 31.1449V32.4397H30.1857C30.4148 32.4397 30.5907 32.3834 30.7142 32.2708C30.8393 32.1582 30.9019 31.9956 30.9019 31.7829C30.9019 31.575 30.8393 31.4162 30.7142 31.3076C30.5907 31.1997 30.4148 31.1449 30.1857 31.1449H29.5008Z" fill="#191919"/>
<path d="M36.0016 31.1449H33.853V31.9518H35.792V32.7618H33.853V33.5812H36.0641V34.3944H32.8209V30.3318H36.0016V31.1449Z" fill="#191919"/>
<path d="M39.5874 34.3944L38.9838 33.2497H38.1706V34.3944H37.1385V30.3318H38.9556C39.4935 30.3318 39.9095 30.4553 40.2035 30.7008C40.4975 30.9471 40.6445 31.2966 40.6445 31.7485C40.6445 32.374 40.3982 32.8088 39.9064 33.0527L40.7602 34.3944H39.5874ZM38.1706 32.4397H38.9556C39.1785 32.4397 39.3512 32.3834 39.4748 32.2708C39.5999 32.1582 39.6624 31.9956 39.6624 31.7829C39.6624 31.575 39.5999 31.4162 39.4748 31.3076C39.3512 31.1997 39.1785 31.1449 38.9556 31.1449H38.1706V32.4397Z" fill="#191919"/>
<path d="M24.183 37.9003H22.2033V38.8385H24.0266V39.6517H22.2033V41.1498H21.1712V37.0872H24.183V37.9003Z" fill="#191919"/>
<path d="M27.0088 37.0527C27.6406 37.0527 28.1644 37.249 28.582 37.6407C29.001 38.0332 29.2106 38.5242 29.2106 39.1137C29.2106 39.7064 28.9995 40.2013 28.5788 40.5993C28.1597 40.9981 27.6359 41.1967 27.0088 41.1967C26.381 41.1967 25.8587 40.9988 25.442 40.6024C25.0244 40.2045 24.8165 39.708 24.8165 39.1137C24.8165 38.5219 25.0244 38.0309 25.442 37.6407C25.8587 37.249 26.381 37.0527 27.0088 37.0527ZM27.0213 37.9159C26.7039 37.9159 26.4334 38.0316 26.2082 38.2631C25.983 38.4929 25.8704 38.7783 25.8704 39.12C25.8704 39.4601 25.983 39.7471 26.2082 39.9801C26.4349 40.2138 26.7055 40.3303 27.0182 40.3303C27.3325 40.3303 27.5999 40.2138 27.8189 39.9801C28.0378 39.7471 28.1472 39.4601 28.1472 39.12C28.1472 38.7783 28.0378 38.4929 27.8189 38.2631C27.5999 38.0316 27.3341 37.9159 27.0213 37.9159Z" fill="#191919"/>
<path d="M32.0869 37.0527C32.7186 37.0527 33.2425 37.249 33.66 37.6407C34.0791 38.0332 34.2886 38.5242 34.2886 39.1137C34.2886 39.7064 34.0775 40.2013 33.6569 40.5993C33.2378 40.9981 32.714 41.1967 32.0869 41.1967C31.4591 41.1967 30.9368 40.9988 30.52 40.6024C30.1025 40.2045 29.8945 39.708 29.8945 39.1137C29.8945 38.5219 30.1025 38.0309 30.52 37.6407C30.9368 37.249 31.4591 37.0527 32.0869 37.0527ZM32.0994 37.9159C31.782 37.9159 31.5114 38.0316 31.2863 38.2631C31.0611 38.4929 30.9485 38.7783 30.9485 39.12C30.9485 39.4601 31.0611 39.7471 31.2863 39.9801C31.513 40.2138 31.7835 40.3303 32.0963 40.3303C32.4106 40.3303 32.678 40.2138 32.8969 39.9801C33.1158 39.7471 33.2253 39.4601 33.2253 39.12C33.2253 38.7783 33.1158 38.4929 32.8969 38.2631C32.678 38.0316 32.4122 37.9159 32.0994 37.9159Z" fill="#191919"/>
<path d="M35.2381 37.0872H36.9864C37.6244 37.0872 38.1435 37.2748 38.5438 37.6501C38.9442 38.0254 39.1443 38.5149 39.1443 39.1169C39.1443 39.7174 38.941 40.2068 38.5345 40.5837C38.1279 40.9613 37.5978 41.1498 36.9457 41.1498H35.2381V37.0872ZM36.2702 37.9097V40.3241H37.0083C37.3249 40.3241 37.5845 40.2139 37.787 39.9926C37.9911 39.7698 38.0935 39.4812 38.0935 39.1263C38.0935 38.7697 37.9872 38.4781 37.7745 38.2506C37.5618 38.0238 37.2905 37.9097 36.9613 37.9097H36.2702Z" fill="#191919"/>
<path d="M24.5728 44.626C24.7917 44.626 24.9872 44.6838 25.1608 44.798L25.045 45.0482C24.8738 44.9442 24.7088 44.8918 24.5509 44.8918C24.4672 44.8918 24.4008 44.9075 24.3507 44.9387C24.3023 44.9684 24.2788 45.0107 24.2788 45.067C24.2788 45.1232 24.3007 45.1717 24.3445 45.2108C24.3898 45.2483 24.4461 45.2765 24.5134 45.2953C24.5798 45.314 24.6525 45.3383 24.7323 45.3672C24.8113 45.3946 24.884 45.4235 24.9512 45.4548C25.0177 45.486 25.0732 45.5353 25.117 45.6018C25.1608 45.669 25.1827 45.7487 25.1827 45.8426C25.1827 45.9911 25.1232 46.1084 25.0044 46.196C24.8871 46.2835 24.7362 46.3273 24.5509 46.3273C24.4211 46.3273 24.296 46.3039 24.1756 46.2554C24.0568 46.2077 23.952 46.1428 23.8629 46.0615L23.9848 45.8144C24.07 45.8942 24.1631 45.9552 24.2632 45.9989C24.3648 46.0412 24.4618 46.0615 24.554 46.0615C24.6541 46.0615 24.7307 46.0443 24.7855 46.0083C24.8418 45.9708 24.8699 45.9208 24.8699 45.8582C24.8699 45.8003 24.8464 45.7511 24.8011 45.7112C24.7573 45.6721 24.701 45.644 24.6322 45.6268C24.565 45.608 24.4923 45.5853 24.4133 45.558C24.3359 45.5314 24.2632 45.5032 24.1944 45.4735C24.1271 45.4446 24.0708 45.3977 24.0255 45.3328C23.9817 45.2663 23.9598 45.1858 23.9598 45.092C23.9598 44.9505 24.0161 44.8379 24.1287 44.7542C24.2413 44.669 24.3891 44.626 24.5728 44.626Z" fill="#191919"/>
<path d="M26.8853 44.8916H25.9659V45.3451H26.7884V45.5984H25.9659V46.0644H26.9135V46.3177H25.6844V44.6351H26.8853V44.8916Z" fill="#191919"/>
<path d="M27.7098 46.3177H27.4283V44.6351H27.7098V46.3177Z" fill="#191919"/>
<path d="M29.4695 44.8916H28.9347V46.3177H28.6532V44.8916H28.1215V44.6351H29.4695V44.8916Z" fill="#191919"/>
<path d="M31.0907 46.3177H30.8061V44.8885H30.4777V44.6351H31.0907V46.3177Z" fill="#191919"/>
<path d="M32.1949 46.3305C32.0112 46.3305 31.8446 46.2882 31.6945 46.2022L31.804 45.9896C31.9119 46.0607 32.0362 46.0959 32.1761 46.0959C32.3341 46.0959 32.4529 46.0419 32.5327 45.9333C32.6116 45.823 32.6492 45.6737 32.6453 45.486C32.5554 45.6448 32.4021 45.7237 32.1855 45.7237C32.0166 45.7237 31.8837 45.676 31.7883 45.5799C31.6922 45.4821 31.6445 45.3516 31.6445 45.1889C31.6445 45.0161 31.6976 44.8793 31.804 44.7792C31.9119 44.6776 32.0557 44.626 32.2356 44.626C32.4482 44.626 32.6148 44.6979 32.736 44.8418C32.8587 44.9856 32.9205 45.1858 32.9205 45.4422C32.9205 45.7112 32.8548 45.927 32.7235 46.0896C32.5921 46.2507 32.4154 46.3305 32.1949 46.3305ZM32.2387 45.5017C32.3489 45.5017 32.4365 45.472 32.5014 45.411C32.5679 45.3484 32.5999 45.2726 32.5984 45.1827C32.5999 45.1014 32.571 45.0294 32.5108 44.9669C32.4498 44.9028 32.3638 44.8699 32.2512 44.8699C32.1464 44.8699 32.0636 44.8981 32.001 44.9544C31.94 45.0107 31.9103 45.0904 31.9103 45.1921C31.9103 45.2882 31.9392 45.3641 31.9979 45.4204C32.0557 45.4751 32.1363 45.5017 32.2387 45.5017Z" fill="#191919"/>
<path d="M33.8396 46.3305C33.6558 46.3305 33.4893 46.2882 33.3392 46.2022L33.4486 45.9896C33.5565 46.0607 33.6808 46.0959 33.8208 46.0959C33.9787 46.0959 34.0976 46.0419 34.1773 45.9333C34.2563 45.823 34.2938 45.6737 34.2899 45.486C34.2 45.6448 34.0468 45.7237 33.8302 45.7237C33.6613 45.7237 33.5284 45.676 33.433 45.5799C33.3368 45.4821 33.2891 45.3516 33.2891 45.1889C33.2891 45.0161 33.3423 44.8793 33.4486 44.7792C33.5565 44.6776 33.7004 44.626 33.8802 44.626C34.0929 44.626 34.2594 44.6979 34.3806 44.8418C34.5034 44.9856 34.5651 45.1858 34.5651 45.4422C34.5651 45.7112 34.4995 45.927 34.3681 46.0896C34.2368 46.2507 34.06 46.3305 33.8396 46.3305ZM33.8833 45.5017C33.9936 45.5017 34.0812 45.472 34.1461 45.411C34.2125 45.3484 34.2446 45.2726 34.243 45.1827C34.2446 45.1014 34.2156 45.0294 34.1554 44.9669C34.0945 44.9028 34.0084 44.8699 33.8959 44.8699C33.7911 44.8699 33.7082 44.8981 33.6457 44.9544C33.5847 45.0107 33.555 45.0904 33.555 45.1921C33.555 45.2882 33.5839 45.3641 33.6425 45.4204C33.7004 45.4751 33.7809 45.5017 33.8833 45.5017Z" fill="#191919"/>
<path d="M35.5257 44.626C35.686 44.626 35.815 44.6651 35.9135 44.7417C36.0112 44.8168 36.0605 44.9192 36.0605 45.0482C36.0605 45.1944 35.9581 45.3781 35.754 45.5986L35.3162 46.0646H36.1387V46.3179H34.944V46.1115L35.5632 45.4454C35.6985 45.3062 35.7665 45.1874 35.7665 45.0888C35.7665 45.0224 35.7415 44.97 35.6915 44.9325C35.6414 44.8934 35.5726 44.873 35.485 44.873C35.3326 44.873 35.1793 44.9434 35.0253 45.0826L34.9127 44.8637C35.1105 44.7057 35.3146 44.626 35.5257 44.626Z" fill="#191919"/>
</svg>
