<svg width="70" height="60" viewBox="0 0 70 60" fill="none" xmlns="http://www.w3.org/2000/svg">
<path d="M2.18295 59.9221H0.498596V53.3051H2.18295V59.9221Z" fill="#191919"/>
<path d="M11.7847 59.9221H10.2985L7.25538 55.8528V59.9221H5.67719V53.3051H7.16338L10.2136 57.3885V53.3051H11.7847V59.9221Z" fill="#191919"/>
<path d="M26.9115 59.9221H25.4254L25.4183 55.6263L23.833 59.264H22.7361L21.1508 55.6263V59.9221H19.6434V53.298H21.4905L23.281 57.2399L25.0786 53.298H26.9115V59.9221Z" fill="#191919"/>
<path d="M33.5573 53.2484C34.5799 53.2484 35.4327 53.5704 36.1121 54.2109C36.795 54.8478 37.1383 55.6458 37.1383 56.603C37.1383 57.5707 36.795 58.3793 36.1121 59.0304C35.4274 59.678 34.5728 60 33.5502 60C32.5311 60 31.6818 59.678 31.0024 59.0304C30.323 58.3846 29.9833 57.5761 29.9833 56.603C29.9833 55.6405 30.323 54.8408 31.0024 54.2038C31.6818 53.5669 32.5329 53.2484 33.5573 53.2484ZM33.5714 54.6568C33.0566 54.6568 32.616 54.8461 32.248 55.2229C31.8835 55.5962 31.7031 56.0616 31.7031 56.6171C31.7031 57.1691 31.8871 57.6362 32.2551 58.0184C32.6231 58.4005 33.0619 58.5916 33.5714 58.5916C34.081 58.5916 34.5127 58.4005 34.8665 58.0184C35.2239 57.6362 35.4044 57.1691 35.4044 56.6171C35.4044 56.0616 35.2239 55.5962 34.8665 55.2229C34.5127 54.8461 34.081 54.6568 33.5714 54.6568Z" fill="#191919"/>
<path d="M45.2546 54.6568H43.2589V59.9221H41.5745V54.6568H39.6V53.298H45.2546V54.6568Z" fill="#191919"/>
<path d="M49.8257 59.9221H48.1414V53.3051H49.8257V59.9221Z" fill="#191919"/>
<path d="M56.4619 53.2484C57.4846 53.2484 58.3374 53.5704 59.0168 54.2109C59.6997 54.8478 60.0429 55.6458 60.0429 56.603C60.0429 57.5707 59.6997 58.3793 59.0168 59.0304C58.3321 59.678 57.4775 60 56.4549 60C55.4358 60 54.5865 59.678 53.9071 59.0304C53.2277 58.3846 52.888 57.5761 52.888 56.603C52.888 55.6405 53.2277 54.8408 53.9071 54.2038C54.5865 53.5669 55.4375 53.2484 56.4619 53.2484ZM56.4761 54.6568C55.9612 54.6568 55.5207 54.8461 55.1527 55.2229C54.7882 55.5962 54.6077 56.0616 54.6077 56.6171C54.6077 57.1691 54.7917 57.6362 55.1597 58.0184C55.5278 58.4005 55.9665 58.5916 56.4761 58.5916C56.9856 58.5916 57.4173 58.4005 57.7712 58.0184C58.1286 57.6362 58.3091 57.1691 58.3091 56.6171C58.3091 56.0616 58.1286 55.5962 57.7712 55.2229C57.4173 54.8461 56.9856 54.6568 56.4761 54.6568Z" fill="#191919"/>
<path d="M69.2071 59.9221H67.721L64.6778 55.8528V59.9221H63.0996V53.3051H64.5858L67.636 57.3885V53.3051H69.2071V59.9221Z" fill="#191919"/>
<path d="M49.0725 42.084H13.8463V6.82764H49.0725V42.084ZM14.4089 41.5213H48.5099V7.39027H14.4089V41.5213Z" fill="#191919"/>
<path d="M52.2571 38.5207H17.0327V3.2644H52.2571V38.5207ZM17.5935 37.9581H51.6945V3.82703H17.5935V37.9581Z" fill="#191919"/>
<path d="M55.6292 35.2581H20.4047V0H55.6292V35.2581ZM20.9674 34.6955H55.0683V0.562629H20.9674V34.6955Z" fill="#191919"/>
<path d="M25.1446 22.9598H32.9347V30.7517H25.1446V22.9598Z" fill="#191919"/>
</svg>
