<svg width="81" height="80" viewBox="0 0 81 80" fill="none" xmlns="http://www.w3.org/2000/svg">
<path d="M80.049 18.4831C79.999 18.4831 79.9511 18.4747 79.9031 18.458L66.9322 13.8572C66.7988 13.8113 66.7092 13.7216 66.6633 13.5882L62.0624 0.619419C61.9999 0.440136 62.0353 0.28587 62.1729 0.154535C62.3105 0.0252851 62.4647 -0.00598514 62.6419 0.0648943L75.1167 5.15569C75.2313 5.20364 75.3126 5.28494 75.3606 5.3996L80.4556 17.8785C80.4827 17.9473 80.4931 18.0182 80.4847 18.0891C80.4764 18.162 80.4535 18.2287 80.4118 18.2892C80.3722 18.3496 80.318 18.3976 80.2554 18.4309C80.1908 18.4664 80.122 18.4831 80.049 18.4831ZM67.4221 13.0962L79.2694 17.2969L74.6143 5.90409L63.2215 1.25108L67.4221 13.0962Z" fill="#191919"/>
<path d="M80.4892 17.9452C80.4537 17.7867 80.3578 17.6825 80.2056 17.6283L67.4245 13.0962L62.8944 0.315012C62.8694 0.244133 62.8277 0.183677 62.7714 0.133644C62.7152 0.0836117 62.6505 0.0502568 62.5755 0.0335794C62.5025 0.0169019 62.4296 0.0189863 62.3566 0.0398329C62.2836 0.06068 62.2211 0.0982048 62.169 0.152406L0.668753 61.6568L0.652075 61.6756L0.641652 61.686C0.501978 61.8173 0.466539 61.9737 0.531164 62.153L5.13206 75.1218C5.1404 75.1426 5.15082 75.1634 5.16124 75.1822L5.17375 75.2051C5.19043 75.2302 5.20919 75.2531 5.23004 75.276C5.25297 75.2969 5.2759 75.3156 5.30092 75.3323L5.32176 75.3427C5.34053 75.3552 5.36346 75.3636 5.3843 75.3719L18.3552 79.9728C18.4011 79.9895 18.4511 79.9999 18.5011 79.9999C18.6283 79.9999 18.7346 79.954 18.8222 79.8623V79.8498L18.8409 79.8311L80.3599 18.3559C80.4787 18.2433 80.5225 18.1057 80.4892 17.9452ZM1.51096 62.0633L62.2961 1.27813L66.5697 13.3276L5.72828 74.1691L1.48386 62.2071C1.50054 62.1592 1.50888 62.1113 1.51096 62.0633ZM18.4573 79.0097C18.4094 79.0097 18.3615 79.018 18.3156 79.0368L6.34951 74.7924L67.1931 13.9509L79.2425 18.2245L18.4573 79.0097Z" fill="#191919"/>
</svg>
