<svg width="81" height="81" viewBox="0 0 81 81" fill="none" xmlns="http://www.w3.org/2000/svg">
<path d="M80.2995 38.7409C80.1661 38.6846 80.0473 38.7076 79.9452 38.8097L67.5895 51.1654V26.1288C67.5895 25.985 67.5207 25.885 67.3873 25.8308C67.2539 25.7745 67.1351 25.7974 67.033 25.8996L54.6772 38.2553V13.2187C54.6668 13.0832 54.598 12.9894 54.473 12.9415C54.3458 12.8915 54.2333 12.9123 54.1332 13.004L41.7775 25.3597V0.323142C41.7733 0.18141 41.7066 0.0834479 41.5774 0.0292565C41.4461 -0.0249355 41.3294 -0.0040919 41.2273 0.0938697L0.59387 40.7439C0.495907 40.8461 0.475065 40.9628 0.529256 41.092C0.583448 41.2233 0.681411 41.29 0.823142 41.2921H25.8451L13.504 53.6478C13.4019 53.75 13.379 53.8688 13.4331 54.0022C13.4894 54.1355 13.5895 54.2022 13.7333 54.2022H38.7511L26.4058 66.558C26.3037 66.6622 26.2808 66.7789 26.3349 66.9123C26.3912 67.0457 26.4892 67.1124 26.6351 67.1124H51.6571L39.3097 79.4681C39.2097 79.5723 39.1846 79.689 39.2409 79.8224C39.2951 79.9558 39.3952 80.0225 39.539 80.0225H80.1744C80.2641 80.0225 80.3412 79.9913 80.4037 79.9287C80.4683 79.8641 80.4996 79.7891 80.4996 79.6974V39.0536C80.5058 38.9035 80.4391 38.7993 80.2995 38.7409ZM1.60892 40.6418L41.1335 1.10892V26.01L26.4954 40.6418H1.60892ZM41.1335 26.9167V40.6418H27.4146L41.1335 26.9167ZM14.5149 53.554L26.7643 41.2921H41.4586C41.5482 41.2921 41.6254 41.2608 41.6879 41.1983C41.7525 41.1337 41.7838 41.0566 41.7838 40.9669V26.2726L54.0394 14.0128V38.9118L39.4056 53.554H14.5149ZM54.0394 39.8289V53.5519H40.3206L54.0394 39.8289ZM27.4188 66.46L39.6703 54.2043H54.3646C54.4542 54.2043 54.5292 54.1731 54.5939 54.1084C54.6564 54.0459 54.6897 53.9688 54.6897 53.8792V39.1786L66.9433 26.9167V51.8157L52.3116 66.46H27.4188ZM66.9433 52.737V66.46H53.2266L66.9433 52.737ZM79.8493 79.366H40.331L52.5804 67.1103H67.2685C67.3581 67.1103 67.4352 67.079 67.4998 67.0144C67.5624 66.9519 67.5936 66.8748 67.5936 66.7851V52.0867L79.8493 39.8289V79.366Z" fill="#191919"/>
</svg>
